{"title":"Se7en-720p MP4 AAC x264 Remastered BRRip 1995-CC","uid":7506962,"size":2937594977,"categoryP":"video","categoryS":"hd___movies","magnet":"?xt=urn:btih:6440bf5895f517fe07ee0879cfcf38b76fe41cb1&amp;dn=Se7en-720p+MP4+AAC+x264+Remastered+BRRip+1995-CC&amp;tr=udp%3A%2F%2Ftracker.openbittorrent.com%3A80&amp;tr=udp%3A%2F%2Fopen.demonii.com%3A1337&amp;tr=udp%3A%2F%2Ftracker.coppersurfer.tk%3A6969&amp;tr=udp%3A%2F%2Fexodus.desync.com%3A6969","seeders":1,"leechers":0,"uploader":"Caveman44","files":-1,"time":1344205729,"description":" &lt;a href=&quot;http://www.imdb.com/title/tt0114369/&quot; rel=&quot;nofollow&quot; target=&quot;_NEW&quot;&gt;http://www.imdb.com/title/tt0114369/&lt;/a&gt;\n\nSource: Se7en.1995.Remastered.720p.BluRay.DTS.x264-HiDt Thanks!\n\nSubs: Arabic, Brazilian, Bulgarian, Chinese, Czech, Danish, Dutch, English, Finnish, French, German, Greek, Hebrew, Italian, Norwegian, Polish, Portuguese, Romanian, Russian, Spanish, Swedish, Turkish and Vietnamese.\n\nSample and Screens included.\n\nGeneral\nComplete name                    : Se7en-720p MP4 AAC x264 Remastered BRRip 1995-CC.mp4\nFormat                           : MPEG-4\nFormat profile                   : Base Media\nCodec ID                         : isom\nFile size                        : 2.71 GiB\nDuration                         : 2h 6mn\nOverall bit rate                 : 3 054 Kbps\nEncoded date                     : UTC 2012-07-31 18:52:23\n\nVideo\nID                               : 1\nFormat                           : AVC\nFormat/Info                      : Advanced Video Codec\nFormat profile                   : &lt;a class=&quot;__cf_email__&quot; href=&quot;/cdn-cgi/l/email-protection&quot; data-cfemail=&quot;753d1c121d3539465b44&quot;&gt;[email&amp;#160;protected]&lt;/a&gt;&lt;script cf-hash='f9e31' type=&quot;text/javascript&quot;&gt;\n/* &lt;![CDATA[ */!function(){try{var t=&quot;currentScript&quot;in document?document.currentScript:function(){for(var t=document.getElementsByTagName(&quot;script&quot;),e=t.length;e--;)if(t[e].getAttribute(&quot;cf-hash&quot;))return t[e]}();if(t&amp;&amp;t.previousSibling){var e,r,n,i,c=t.previousSibling,a=c.getAttribute(&quot;data-cfemail&quot;);if(a){for(e=&quot;&quot;,r=parseInt(a.substr(0,2),16),n=2;a.length-n;n+=2)i=parseInt(a.substr(n,2),16)^r,e+=String.fromCharCode(i);e=document.createTextNode(e),c.parentNode.replaceChild(e,c)}}}catch(u){}}();/* ]]&gt; */&lt;/script&gt;\nFormat settings, CABAC           : Yes\nFormat settings, ReFrames        : 5 frames\nCodec ID                         : avc1\nCodec ID/Info                    : Advanced Video Coding\nDuration                         : 2h 6mn\nBit rate mode                    : Variable\nBit rate                         : 2 676 Kbps\nMaximum bit rate                 : 15.0 Mbps\nWidth                            : 1 280 pixels\nHeight                           : 528 pixels\nDisplay aspect ratio             : 2.35:1\nFrame rate mode                  : Variable\nFrame rate                       : 23.976 fps\nMinimum frame rate               : 13.605 fps\nMaximum frame rate               : 24.390 fps\nResolution                       : 24 bits\nColorimetry                      : 4:2:0\nScan type                        : Progressive\nBits/(Pixel*Frame)               : 0.165\nStream size                      : 2.36 GiB (87%)\nWriting library                  : x264 core 112\n\nAudio\nID                               : 2\nFormat                           : AAC\nFormat/Info                      : Advanced Audio Codec\nFormat version                   : Version 4\nFormat profile                   : LC\nFormat settings, SBR             : No\nCodec ID                         : 40\nDuration                         : 2h 6mn\nBit rate mode                    : Variable\nBit rate                         : 384 Kbps\nMaximum bit rate                 : 630 Kbps\nChannel(s)                       : 6 channels\nChannel positions                : Front: L C R, Rear: L R, LFE\nSampling rate                    : 48.0 KHz\nResolution                       : 16 bits\nStream size                      : 348 MiB (13%)\nLanguage                         : English\n\nEnjoy...\n\nRequested by cmptrluvr's.","torrent":{"xt":"urn:btih:6440bf5895f517fe07ee0879cfcf38b76fe41cb1","amp;dn":"Se7en-720p+MP4+AAC+x264+Remastered+BRRip+1995-CC","amp;tr":["udp%3A%2F%2Ftracker.openbittorrent.com%3A80","udp%3A%2F%2Fopen.demonii.com%3A1337","udp%3A%2F%2Ftracker.coppersurfer.tk%3A6969","udp%3A%2F%2Fexodus.desync.com%3A6969"],"infoHash":"6440bf5895f517fe07ee0879cfcf38b76fe41cb1","infoHashBuffer":{"type":"Buffer","data":[100,64,191,88,149,245,23,254,7,238,8,121,207,207,56,183,111,228,28,177]},"announce":[],"urlList":[]}}